<?xml version="1.0"?>
<svg viewBox="0 0 278 544" xmlns="http://www.w3.org/2000/svg" xmlns:xlink="http://www.w3.org/1999/xlink">
<g transform="matrix(-1 0 0 1 271 12)">
<use y="416" xlink:href="#b"/>
<use y="104" xlink:href="#l"/>
<g id="j">
<use xlink:href="#e" y="208"/>
<use xlink:href="#g" y="208"/>
<path d="m32.7 259h27.8v4.5h-27.8"/>
</g>
<use xlink:href="#j" y="104"/>
<g id="b">
<g id="l">
<path id="e" d="m12.4 26.8v34.3c0 3.8.9 10 2.1 13.7l2 6.7c1.1 3.7 5.2 6.7 9.1 6.7h220c3.9 0 7.9-3 9.1-6.7l2-6.7c1.1-3.7 2.1-9.8 2.1-13.7v-34.3c0-3.9-3.1-7-7-7h-232c-3.9 0-7 3.1-7 7" fill="#fff" stroke="#000" stroke-width="2"/>
<path d="m24.7 50.8h43.7v4.6h-43.7"/>
<path id="a" d="m53.9 34.2h11.5v11.5h-11.5m-26.2-11.5h11.5v11.5h-11.5"/>
<use xlink:href="#a" y="26.2"/>
</g>
<g id="g">
<g id="d">
<path id="c" d="m86.5 24.9h17v17h-17m0 23.6h17v17h-17m0-37.3h17v17h-17"/>
<g id="h">
<use x="20.3" xlink:href="#c"/>
<use x="40.6" xlink:href="#c"/>
</g>
</g>
<use x="101.5" xlink:href="#d"/>
</g>
</g>
<use y="104" xlink:href="#g"/>
<use x="40.6" xlink:href="#h" y="104"/>
<use x="40.6" xlink:href="#h" y="312"/>
<path d="m126 501h81v-21h41v-21h-41v-21h-61v42h-20" fill="#fff"/>
</g>
<g font-family="Arial, sans-serif" font-size="14" text-anchor="middle" transform="translate(142)">
<text y="116">DVI-I (Single Link)</text>
<text y="220">DVI-I (Dual Link)</text>
<text y="324">DVI-D (Single Link)</text>
<text y="428">DVI-D (Dual Link)</text>
<text y="532">DVI-A</text>
<text y="18">FEMALE LAYOUT</text>
</g>
</svg>
